<?xml version="1.0" standalone="no"?>
<!DOCTYPE svg PUBLIC "-//W3C//DTD SVG 20010904//EN"
 "http://www.w3.org/TR/2001/REC-SVG-20010904/DTD/svg10.dtd">
<svg version="1.0" xmlns="http://www.w3.org/2000/svg"
 width="40.000000pt" height="40.000000pt" viewBox="0 0 40.000000 40.000000"
 preserveAspectRatio="xMidYMid meet">

<g transform="translate(0.000000,40.000000) scale(0.100000,-0.100000)"
fill="#000000" stroke="none">
<path d="M135 388 c-88 -31 -141 -113 -132 -204 3 -30 15 -70 27 -90 21 -33
84 -84 104 -84 6 0 -11 13 -37 30 -28 17 -47 37 -47 48 0 27 27 59 60 71 27 9
32 8 38 -9 4 -12 12 -16 20 -11 9 5 7 17 -9 50 -22 47 -32 104 -23 134 3 10
21 25 40 33 30 13 37 13 59 -2 14 -9 30 -24 34 -33 12 -22 -1 -87 -27 -138
-19 -36 -20 -42 -6 -47 11 -4 18 1 21 14 6 24 2 23 47 5 23 -10 38 -24 42 -40
17 -67 59 21 51 104 -14 129 -141 211 -262 169z"/>
<path d="M173 3 c15 -2 37 -2 50 0 12 2 0 4 -28 4 -27 0 -38 -2 -22 -4z"/>
</g>
</svg>
