<svg width="32" height="32" viewBox="0 0 32 32" fill="none" xmlns="http://www.w3.org/2000/svg">
<path opacity="0.5" d="M29.3334 13.3333H2.66675V25.3333C2.66675 26.3942 3.08818 27.4116 3.83832 28.1617C4.58847 28.9119 5.60588 29.3333 6.66675 29.3333H25.3334C26.3943 29.3333 27.4117 28.9119 28.1618 28.1617C28.912 27.4116 29.3334 26.3942 29.3334 25.3333V13.3333ZM9.33342 10.6666C8.97979 10.6666 8.64066 10.5262 8.39061 10.2761C8.14056 10.0261 8.00008 9.68692 8.00008 9.33329V3.99996C8.00008 3.64634 8.14056 3.3072 8.39061 3.05715C8.64066 2.8071 8.97979 2.66663 9.33342 2.66663C9.68704 2.66663 10.0262 2.8071 10.2762 3.05715C10.5263 3.3072 10.6667 3.64634 10.6667 3.99996V9.33329C10.6667 9.68692 10.5263 10.0261 10.2762 10.2761C10.0262 10.5262 9.68704 10.6666 9.33342 10.6666ZM22.6667 10.6666C22.3131 10.6666 21.974 10.5262 21.7239 10.2761C21.4739 10.0261 21.3334 9.68692 21.3334 9.33329V3.99996C21.3334 3.64634 21.4739 3.3072 21.7239 3.05715C21.974 2.8071 22.3131 2.66663 22.6667 2.66663C23.0204 2.66663 23.3595 2.8071 23.6096 3.05715C23.8596 3.3072 24.0001 3.64634 24.0001 3.99996V9.33329C24.0001 9.68692 23.8596 10.0261 23.6096 10.2761C23.3595 10.5262 23.0204 10.6666 22.6667 10.6666Z" fill="#6C6E90"/>
<path d="M25.3334 5.33337H24.0001V9.33337C24.0001 9.687 23.8596 10.0261 23.6096 10.2762C23.3595 10.5262 23.0204 10.6667 22.6667 10.6667C22.3131 10.6667 21.974 10.5262 21.7239 10.2762C21.4739 10.0261 21.3334 9.687 21.3334 9.33337V5.33337H10.6667V9.33337C10.6667 9.687 10.5263 10.0261 10.2762 10.2762C10.0262 10.5262 9.68704 10.6667 9.33342 10.6667C8.97979 10.6667 8.64066 10.5262 8.39061 10.2762C8.14056 10.0261 8.00008 9.687 8.00008 9.33337V5.33337H6.66675C5.60588 5.33337 4.58847 5.7548 3.83832 6.50495C3.08818 7.25509 2.66675 8.27251 2.66675 9.33337V13.3334H29.3334V9.33337C29.3334 8.27251 28.912 7.25509 28.1618 6.50495C27.4117 5.7548 26.3943 5.33337 25.3334 5.33337Z" fill="#6C6E90"/>
</svg>
