<svg width="24" height="24" viewBox="0 0 24 24" fill="none" xmlns="http://www.w3.org/2000/svg">
<path d="M15.7733 6.66634H10V5.33301H15.1867C14.9982 4.6621 14.9537 3.95894 15.0559 3.26961C15.1582 2.58028 15.4049 1.92033 15.78 1.33301H5.33333C4.97971 1.33301 4.64057 1.47348 4.39052 1.72353C4.14048 1.97358 4 2.31272 4 2.66634V21.333C4 21.6866 4.14048 22.0258 4.39052 22.2758C4.64057 22.5259 4.97971 22.6663 5.33333 22.6663H18.6667C19.0203 22.6663 19.3594 22.5259 19.6095 22.2758C19.8595 22.0258 20 21.6866 20 21.333V8.99967C19.1557 8.99981 18.3251 8.78585 17.5859 8.37779C16.8467 7.96973 16.2231 7.38089 15.7733 6.66634ZM8.66667 17.333H7.33333V15.9997H8.66667V17.333ZM8.66667 14.6663H7.33333V13.333H8.66667V14.6663ZM8.66667 11.9997H7.33333V10.6663H8.66667V11.9997ZM8.66667 9.33301H7.33333V7.99967H8.66667V9.33301ZM8.66667 6.66634H7.33333V5.33301H8.66667V6.66634ZM16.6667 17.333H10V15.9997H16.6667V17.333ZM16.6667 14.6663H10V13.333H16.6667V14.6663ZM16.6667 11.9997H10V10.6663H16.6667V11.9997ZM16.6667 9.33301H10V7.99967H16.6667V9.33301Z" fill="black"/>
<path d="M20.0001 7.33366C21.841 7.33366 23.3334 5.84127 23.3334 4.00033C23.3334 2.15938 21.841 0.666992 20.0001 0.666992C18.1591 0.666992 16.6667 2.15938 16.6667 4.00033C16.6667 5.84127 18.1591 7.33366 20.0001 7.33366Z" fill="black"/>
</svg>
