<svg width="24" height="24" viewBox="0 0 24 24" fill="none" xmlns="http://www.w3.org/2000/svg">
<path d="M19.3 8.89679V8.89671C19.2996 8.39296 19.0991 7.91002 18.7427 7.55404L14.046 2.85609L14.0459 2.85606C13.6898 2.5001 13.2068 2.3001 12.7033 2.29999H12.7032H7.20005C6.53701 2.29999 5.90112 2.56339 5.43228 3.03223C4.96344 3.50107 4.70005 4.13695 4.70005 4.79999V19.2C4.70005 19.863 4.96344 20.4989 5.43228 20.9678C5.90112 21.4366 6.53701 21.7 7.20005 21.7H16.8C17.4631 21.7 18.099 21.4366 18.5678 20.9678C19.0367 20.4989 19.3 19.863 19.3 19.2V8.89679ZM7.30507 12.105C7.1738 12.2363 7.10005 12.4143 7.10005 12.6C7.10005 12.7856 7.1738 12.9637 7.30507 13.095C7.43635 13.2262 7.6144 13.3 7.80005 13.3C7.9857 13.3 8.16375 13.2262 8.29502 13.095C8.4263 12.9637 8.50005 12.7856 8.50005 12.6C8.50005 12.4143 8.4263 12.2363 8.29502 12.105C8.16375 11.9737 7.9857 11.9 7.80005 11.9C7.6144 11.9 7.43635 11.9737 7.30507 12.105ZM7.80005 14.3C7.6144 14.3 7.43635 14.3737 7.30507 14.505C7.1738 14.6363 7.10005 14.8143 7.10005 15C7.10005 15.1856 7.1738 15.3637 7.30507 15.495C7.43635 15.6262 7.6144 15.7 7.80005 15.7C7.9857 15.7 8.16375 15.6262 8.29502 15.495C8.4263 15.3637 8.50005 15.1856 8.50005 15C8.50005 14.8143 8.4263 14.6363 8.29502 14.505C8.16375 14.3737 7.9857 14.3 7.80005 14.3ZM7.30507 16.905C7.1738 17.0363 7.10005 17.2143 7.10005 17.4C7.10005 17.5856 7.1738 17.7637 7.30507 17.895C7.43635 18.0262 7.6144 18.1 7.80005 18.1C7.9857 18.1 8.16375 18.0262 8.29502 17.895C8.4263 17.7637 8.50005 17.5856 8.50005 17.4C8.50005 17.2143 8.4263 17.0363 8.29502 16.905C8.16375 16.7737 7.9857 16.7 7.80005 16.7C7.6144 16.7 7.43635 16.7737 7.30507 16.905ZM10.2 11.9C10.0144 11.9 9.83635 11.9737 9.70507 12.105C9.5738 12.2363 9.50005 12.4143 9.50005 12.6C9.50005 12.7856 9.5738 12.9637 9.70507 13.095C9.83635 13.2262 10.0144 13.3 10.2 13.3H16.2C16.3857 13.3 16.5637 13.2262 16.695 13.095C16.8263 12.9637 16.9 12.7856 16.9 12.6C16.9 12.4143 16.8263 12.2363 16.695 12.105C16.5637 11.9737 16.3857 11.9 16.2 11.9H10.2ZM9.70507 14.505C9.5738 14.6363 9.50005 14.8143 9.50005 15C9.50005 15.1856 9.5738 15.3637 9.70507 15.495C9.83635 15.6262 10.0144 15.7 10.2 15.7H16.2C16.3857 15.7 16.5637 15.6262 16.695 15.495C16.8263 15.3637 16.9 15.1856 16.9 15C16.9 14.8143 16.8263 14.6363 16.695 14.505C16.5637 14.3737 16.3857 14.3 16.2 14.3H10.2C10.0144 14.3 9.83635 14.3737 9.70507 14.505ZM10.2 16.7C10.0144 16.7 9.83635 16.7737 9.70507 16.905C9.5738 17.0363 9.50005 17.2143 9.50005 17.4C9.50005 17.5856 9.5738 17.7637 9.70507 17.895C9.83635 18.0262 10.0144 18.1 10.2 18.1H16.2C16.3857 18.1 16.5637 18.0262 16.695 17.895C16.8263 17.7637 16.9 17.5856 16.9 17.4C16.9 17.2143 16.8263 17.0363 16.695 16.905C16.5637 16.7737 16.3857 16.7 16.2 16.7H10.2ZM6.10005 4.79999C6.10005 4.50826 6.21594 4.22847 6.42223 4.02218C6.62852 3.81589 6.90831 3.69999 7.20005 3.69999H11.9V7.79999C11.9 8.30391 12.1002 8.78718 12.4565 9.1435C12.8129 9.49982 13.2961 9.69999 13.8 9.69999H17.9V19.2C17.9 19.4917 17.7842 19.7715 17.5779 19.9778C17.3716 20.1841 17.0918 20.3 16.8 20.3H7.20005C6.90831 20.3 6.62852 20.1841 6.42223 19.9778C6.21594 19.7715 6.10005 19.4917 6.10005 19.2V4.79999ZM13.3 4.08982L17.5102 8.29999H13.8C13.6674 8.29999 13.5403 8.24731 13.4465 8.15355C13.3527 8.05978 13.3 7.9326 13.3 7.79999V4.08982Z" fill="#6B7588" stroke="#6B7588" stroke-width="0.2"/>
</svg>
