<svg width="24" height="24" viewBox="0 0 24 24" fill="none" xmlns="http://www.w3.org/2000/svg">
<path d="M12.75 1.5V6.75C12.75 7.34674 12.9871 7.91903 13.409 8.34099C13.831 8.76295 14.4033 9 15 9H20.25V20.25C20.25 20.8467 20.0129 21.419 19.591 21.841C19.169 22.2629 18.5967 22.5 18 22.5H6C5.40326 22.5 4.83097 22.2629 4.40901 21.841C3.98705 21.419 3.75 20.8467 3.75 20.25V3.75C3.75 3.15326 3.98705 2.58097 4.40901 2.15901C4.83097 1.73705 5.40326 1.5 6 1.5H12.75ZM14.25 1.58775V6.75C14.25 6.94891 14.329 7.13968 14.4697 7.28033C14.6103 7.42098 14.8011 7.5 15 7.5H20.1623C20.057 7.13355 19.8603 6.79986 19.5907 6.53025L15.2197 2.16C14.9502 1.89014 14.6165 1.69323 14.25 1.58775Z" fill="black"/>
</svg>
