<svg xmlns="http://www.w3.org/2000/svg" viewBox="0 0 728.89 148.41"><defs><style>.cls-1{fill:#e20612;}</style></defs><g id="Layer_2" data-name="Layer 2"><g id="Layer_1-2" data-name="Layer 1"><path class="cls-1" d="M50.53,55.81A12.22,12.22,0,0,1,38.2,68H27.82v34.16a13.91,13.91,0,0,1-27.82,0V36.62A36.59,36.59,0,0,1,36.62,0a14,14,0,0,1,0,28,8.8,8.8,0,0,0-8.8,8.63v6.87H38.2A12.36,12.36,0,0,1,50.53,55.81Z"/><path class="cls-1" d="M145.11,72.36A45.07,45.07,0,1,1,100,27.29,45.16,45.16,0,0,1,145.11,72.36ZM83,72.36A17.08,17.08,0,1,0,100,55.28,17,17,0,0,0,83,72.36Z"/><path class="cls-1" d="M238.84,72.36a45.07,45.07,0,1,1-45.07-45.07A45.16,45.16,0,0,1,238.84,72.36Zm-62.15,0a17.08,17.08,0,1,0,17.08-17.08A17,17,0,0,0,176.69,72.36Z"/><path class="cls-1" d="M288.35,27.29a46,46,0,0,1,17.08,3.35V14.26A13.78,13.78,0,0,1,319.16.35h1.23a13.54,13.54,0,0,1,13,13.38v89.09A13.34,13.34,0,0,1,320,116a13,13,0,0,1-9.68-4.23,46.48,46.48,0,0,1-22,5.63,45.07,45.07,0,0,1,0-90.14Zm0,62.15a17.08,17.08,0,1,0-17.08-17.08A17,17,0,0,0,288.35,89.44Z"/><path class="cls-1" d="M425.29,46.92l-26.85,65.92c-2.45,6.1-4.89,12-8.2,17.09a42.49,42.49,0,0,1-35.05,18.48c-5.23,0-12.91-3.49-12.73-12.38a12.09,12.09,0,0,1,12.2-12,17.94,17.94,0,0,0,17.27-11l2.62-6.1-24.77-60a14.16,14.16,0,0,1,7.68-18.14,13.87,13.87,0,0,1,18.13,7.5l12,29.3,11.86-29.3c3.14-7,11-10.64,18.31-7.5A13.79,13.79,0,0,1,425.29,46.92Z"/><path class="cls-1" d="M517,72a44.65,44.65,0,1,1-44.64-44.64A44.72,44.72,0,0,1,517,72Zm-61.56,0a16.92,16.92,0,1,0,16.92-16.92A16.82,16.82,0,0,0,455.41,72Z"/><path class="cls-1" d="M666.26,42c-.34,7.68-7,13.08-14.64,13.26-6.11.17-11.16,4.71-11.16,10.64V101.5a13.78,13.78,0,0,1-27.56,0V41.16A13.07,13.07,0,0,1,626,28.08a13.23,13.23,0,0,1,8.72,3.32c7.15-3.67,15-3.84,18.49-3.84A13.6,13.6,0,0,1,666.26,42Z"/><path class="cls-1" d="M708.3,51.1c-3.31-1-8.2-2.26-9.07,1.57-.87,3.49,5.41,5.23,8,5.76a26.34,26.34,0,0,1,14,8c8,8.37,9.77,21.62,5.23,32.09-4.7,10.81-15.52,17.26-27,18-6.45.35-19.88-1.4-25.28-8.55-6.8-9.07-.18-21.8,10.81-21.27,4.36.17,9.07,3.49,12.73,3.66,6.28.52,7.67-7.15,1.74-8.72-11-3.31-19-7.67-24.06-17.79a23.84,23.84,0,0,1,2.44-24.24C686.15,28.26,702,24.42,715.1,29.48c7,2.79,12.73,9.94,8.37,17.61C720.33,52.32,714.92,53.37,708.3,51.1Z"/><path class="cls-1" d="M582.82,85.6h0a24.68,24.68,0,0,1-4.54,7.91c-3.17,3.62-8,6.55-15.34,6.55-19.11,0-19.11-19.91-19.11-19.91h37l18.86-51.27a10.93,10.93,0,0,0-6-1.8h-58c-5.82,0-10.53,4.42-10.53,9.88v42.3c0,20.34,17.18,37.35,38.87,37.69,22.15.35,40.22-16.38,40.22-37.07V37a9.34,9.34,0,0,0-1.55-5.14Zm-15-31.15a14.88,14.88,0,0,0-.71,7.35,9,9,0,0,0,2.35,4.53c.46.48.94,1,1.37,1.47,2.7,3.21,1.3,7.47-3,8.92.49-.74,1-1.4,1.39-2.1,1.37-2.31,1.18-3.82-.87-5.65a9.89,9.89,0,0,1-3.66-6.39A9.21,9.21,0,0,1,567.79,54.45Zm-10.15-.6a4.28,4.28,0,0,1,.48-.3c-.29,1.41-.58,2.71-.83,4a8.91,8.91,0,0,0,2.31,8.35c3,3.21,1.78,7.81-2.39,9.55.22-.34.35-.56.49-.75a5.4,5.4,0,0,0-.44-7.55A9.43,9.43,0,0,1,557.64,53.85Z"/></g></g></svg>