<?xml version="1.0" standalone="no"?>
<!DOCTYPE svg PUBLIC "-//W3C//DTD SVG 20010904//EN"
 "http://www.w3.org/TR/2001/REC-SVG-20010904/DTD/svg10.dtd">
<svg version="1.0" xmlns="http://www.w3.org/2000/svg"
 width="165.000000pt" height="34.000000pt" viewBox="0 0 165.000000 34.000000"
 preserveAspectRatio="xMidYMid meet">

<g transform="translate(0.000000,34.000000) scale(0.100000,-0.100000)"
fill="#000000" stroke="none">
<path d="M50 327 c-37 -19 -50 -54 -50 -142 0 -88 8 -109 36 -103 15 2 20 14
24 53 4 43 8 50 28 53 32 5 27 46 -6 50 -28 4 -24 23 6 37 26 11 30 50 6 59
-19 7 -14 8 -44 -7z"/>
<path d="M702 328 c-7 -7 -12 -22 -12 -35 0 -20 -5 -23 -40 -23 -96 0 -133
-117 -56 -174 21 -16 40 -20 83 -19 30 2 59 5 64 9 5 3 9 58 9 124 0 98 -3
119 -16 124 -20 8 -18 8 -32 -6z m-14 -150 c4 -36 -26 -53 -56 -32 -38 26 -19
67 28 62 19 -2 26 -10 28 -30z"/>
<path d="M1203 273 c-9 -3 -13 -28 -13 -72 0 -89 22 -121 81 -121 53 0 74 13
88 51 13 37 15 127 3 114 -5 -6 -19 -36 -32 -68 -24 -61 -55 -82 -85 -57 -29
24 -17 40 28 40 42 0 43 1 60 49 9 27 17 54 17 60 0 11 -122 15 -147 4z"/>
<path d="M157 242 c-37 -38 -38 -99 -2 -135 82 -81 213 10 161 111 -20 39 -44
52 -93 52 -30 0 -46 -7 -66 -28z m104 -48 c19 -23 -1 -49 -37 -49 -30 0 -42
20 -30 51 7 19 50 18 67 -2z"/>
<path d="M366 239 c-35 -42 -35 -89 2 -130 24 -26 36 -32 72 -32 36 0 48 6 72
32 37 41 37 88 2 130 -22 27 -32 31 -74 31 -42 0 -52 -4 -74 -31z m105 -45
c19 -23 -1 -49 -37 -49 -30 0 -42 20 -30 51 7 19 50 18 67 -2z"/>
<path d="M794 256 c-3 -8 8 -47 25 -87 33 -78 30 -105 -11 -111 -28 -4 -37
-42 -13 -52 9 -3 32 1 50 10 28 13 40 30 70 102 20 48 39 102 42 120 5 29 3
32 -21 32 -20 0 -29 -8 -42 -37 l-16 -38 -19 38 c-20 38 -54 51 -65 23z"/>
<path d="M996 239 c-34 -40 -34 -88 0 -128 22 -26 33 -31 69 -31 65 0 100 33
100 95 0 62 -35 95 -100 95 -36 0 -47 -5 -69 -31z m105 -45 c17 -21 0 -48 -33
-52 -28 -3 -42 18 -33 49 8 23 48 25 66 3z"/>
<path d="M1394 257 c-3 -8 -4 -49 -2 -93 3 -68 6 -79 22 -82 26 -5 36 15 36
76 0 38 4 52 14 52 21 0 46 28 40 45 -8 20 -102 21 -110 2z"/>
<path d="M1536 248 c-21 -31 -10 -65 26 -84 33 -17 30 -33 -7 -27 -29 6 -44
-19 -25 -42 31 -37 120 -4 120 45 0 23 -42 70 -61 70 -7 0 -9 3 -5 7 4 4 17 8
29 8 15 0 22 6 22 20 0 16 -8 21 -42 23 -35 3 -44 -1 -57 -20z"/>
</g>
</svg>
