<svg width="56" height="56" viewBox="0 0 56 56" fill="none" xmlns="http://www.w3.org/2000/svg">
<circle cx="28" cy="28" r="28" fill="#FFE6C0"/>
<path d="M36.4 21C36.4 18.7722 35.515 16.6356 33.9397 15.0603C32.3644 13.485 30.2278 12.6 28 12.6C25.7722 12.6 23.6356 13.485 22.0603 15.0603C20.485 16.6356 19.6 18.7722 19.6 21C19.6 30.8 15.4 33.6 15.4 33.6H40.6C40.6 33.6 36.4 30.8 36.4 21Z" stroke="#FF9900" stroke-width="2.8" stroke-linecap="round" stroke-linejoin="round"/>
<path d="M30.422 39.2C30.1759 39.6243 29.8226 39.9765 29.3975 40.2214C28.9725 40.4662 28.4905 40.5951 28 40.5951C27.5095 40.5951 27.0275 40.4662 26.6025 40.2214C26.1774 39.9765 25.8241 39.6243 25.578 39.2" stroke="#FF9900" stroke-width="2.8" stroke-linecap="round" stroke-linejoin="round"/>
</svg>
