<svg width="56" height="56" viewBox="0 0 56 56" fill="none" xmlns="http://www.w3.org/2000/svg">
<circle cx="28" cy="28" r="28" fill="#FFE6C0"/>
<path d="M23.9098 18.208C25.2751 17.376 26.8644 16.96 28.6778 16.96C30.0004 16.96 31.1738 17.184 32.1978 17.632C33.2218 18.08 34.0111 18.6987 34.5658 19.488C35.1418 20.2773 35.4298 21.1947 35.4298 22.24C35.4298 23.3707 35.1631 24.3413 34.6298 25.152C34.1178 25.9627 33.3391 26.9013 32.2938 27.968C31.4191 28.864 30.7578 29.632 30.3098 30.272C29.8618 30.8907 29.5844 31.5947 29.4778 32.384L29.3498 33.28H26.9818V31.968C26.9818 30.7733 27.1951 29.7707 27.6218 28.96C28.0484 28.128 28.6671 27.232 29.4778 26.272C30.0964 25.5467 30.5551 24.9173 30.8538 24.384C31.1738 23.8507 31.3338 23.2533 31.3338 22.592C31.3338 21.8453 31.0671 21.2693 30.5338 20.864C30.0218 20.4373 29.3071 20.224 28.3898 20.224C26.8964 20.224 25.4031 20.6827 23.9098 21.6V18.208ZM25.9578 35.52H30.4698V40H25.9578V35.52Z" fill="#FF9900"/>
</svg>
