<svg width="280" height="463" viewBox="0 0 280 463" fill="none" xmlns="http://www.w3.org/2000/svg">
<path fill-rule="evenodd" clip-rule="evenodd" d="M208.578 60.8228C229.821 52.6704 253.654 59.039 276.252 61.6979C299.123 64.389 323.694 64.2499 343.099 76.6508C362.455 89.0207 372.049 111.692 384.594 130.935C396.276 148.854 403.715 168.648 414.943 186.853C428.716 209.184 453.728 225.629 458.865 251.357C463.916 276.651 459.675 306.868 442.803 326.379C424.772 347.228 390.17 342.684 366.989 357.599C348.907 369.233 341.475 393.303 322.647 403.686C303.576 414.203 280.976 415.472 259.252 417.011C237.264 418.568 215.122 418.48 193.821 412.809C172.017 407.005 151.525 397.008 133.438 383.519C114.988 369.758 101.623 350.983 87.0425 333.174C70.6159 313.109 40.7967 296.961 41.3483 271.036C41.9409 243.186 82.273 230.641 89.7948 203.82C96.9004 178.484 66.8043 147.389 82.0414 125.935C97.4206 104.282 135.076 118.966 158.692 106.813C178.975 96.3762 187.281 68.9958 208.578 60.8228Z" fill="#FF9A9F"/>
<path fill-rule="evenodd" clip-rule="evenodd" d="M232.055 47.0816C253.298 38.9292 277.132 45.2978 299.729 47.9567C322.601 50.6477 347.171 50.5086 366.576 62.9096C385.933 75.2795 395.526 97.9508 408.071 117.194C419.753 135.112 427.192 154.906 438.421 173.112C452.193 195.442 477.205 211.887 482.343 237.615C487.393 262.91 483.152 293.127 466.28 312.637C448.249 333.487 413.647 328.943 390.466 343.857C372.384 355.491 364.952 379.562 346.124 389.945C327.053 400.462 304.453 401.731 282.729 403.27C260.741 404.827 238.599 404.738 217.298 399.068C195.495 393.264 175.002 383.267 156.916 369.778C138.465 356.017 125.101 337.242 110.52 319.432C94.0931 299.368 64.2739 283.219 64.8255 257.294C65.4181 229.445 105.75 216.9 113.272 190.079C120.378 164.743 90.2816 133.648 105.519 112.194C120.898 90.5404 158.553 105.225 182.169 93.0723C202.453 82.635 210.758 55.2546 232.055 47.0816Z" fill="#E20612"/>
</svg>
