<svg width="40" height="40" viewBox="0 0 40 40" fill="none" xmlns="http://www.w3.org/2000/svg">
<path d="M15 8.33333C14.5579 8.33333 14.134 8.50892 13.8214 8.82148C13.5089 9.13404 13.3333 9.55797 13.3333 10C13.3333 10.442 13.5089 10.8659 13.8214 11.1785C14.134 11.4911 14.5579 11.6667 15 11.6667C15.442 11.6667 15.8659 11.4911 16.1785 11.1785C16.491 10.8659 16.6666 10.442 16.6666 10C16.6666 9.55797 16.491 9.13404 16.1785 8.82148C15.8659 8.50892 15.442 8.33333 15 8.33333ZM10.2833 8.33333C10.6276 7.35744 11.2662 6.51238 12.111 5.91464C12.9557 5.3169 13.9651 4.99591 15 4.99591C16.0348 4.99591 17.0442 5.3169 17.889 5.91464C18.7337 6.51238 19.3723 7.35744 19.7166 8.33333H31.6666C32.1087 8.33333 32.5326 8.50892 32.8451 8.82148C33.1577 9.13404 33.3333 9.55797 33.3333 10C33.3333 10.442 33.1577 10.8659 32.8451 11.1785C32.5326 11.4911 32.1087 11.6667 31.6666 11.6667H19.7166C19.3723 12.6425 18.7337 13.4876 17.889 14.0853C17.0442 14.6831 16.0348 15.0041 15 15.0041C13.9651 15.0041 12.9557 14.6831 12.111 14.0853C11.2662 13.4876 10.6276 12.6425 10.2833 11.6667H8.33329C7.89127 11.6667 7.46734 11.4911 7.15478 11.1785C6.84222 10.8659 6.66663 10.442 6.66663 10C6.66663 9.55797 6.84222 9.13404 7.15478 8.82148C7.46734 8.50892 7.89127 8.33333 8.33329 8.33333H10.2833ZM25 18.3333C24.5579 18.3333 24.134 18.5089 23.8214 18.8215C23.5089 19.134 23.3333 19.558 23.3333 20C23.3333 20.442 23.5089 20.8659 23.8214 21.1785C24.134 21.4911 24.5579 21.6667 25 21.6667C25.442 21.6667 25.8659 21.4911 26.1785 21.1785C26.491 20.8659 26.6666 20.442 26.6666 20C26.6666 19.558 26.491 19.134 26.1785 18.8215C25.8659 18.5089 25.442 18.3333 25 18.3333ZM20.2833 18.3333C20.6276 17.3574 21.2662 16.5124 22.111 15.9146C22.9557 15.3169 23.9651 14.9959 25 14.9959C26.0348 14.9959 27.0442 15.3169 27.889 15.9146C28.7337 16.5124 29.3723 17.3574 29.7166 18.3333H31.6666C32.1087 18.3333 32.5326 18.5089 32.8451 18.8215C33.1577 19.134 33.3333 19.558 33.3333 20C33.3333 20.442 33.1577 20.8659 32.8451 21.1785C32.5326 21.4911 32.1087 21.6667 31.6666 21.6667H29.7166C29.3723 22.6426 28.7337 23.4876 27.889 24.0853C27.0442 24.6831 26.0348 25.0041 25 25.0041C23.9651 25.0041 22.9557 24.6831 22.111 24.0853C21.2662 23.4876 20.6276 22.6426 20.2833 21.6667H8.33329C7.89127 21.6667 7.46734 21.4911 7.15478 21.1785C6.84222 20.8659 6.66663 20.442 6.66663 20C6.66663 19.558 6.84222 19.134 7.15478 18.8215C7.46734 18.5089 7.89127 18.3333 8.33329 18.3333H20.2833ZM15 28.3333C14.5579 28.3333 14.134 28.5089 13.8214 28.8215C13.5089 29.134 13.3333 29.558 13.3333 30C13.3333 30.442 13.5089 30.8659 13.8214 31.1785C14.134 31.4911 14.5579 31.6667 15 31.6667C15.442 31.6667 15.8659 31.4911 16.1785 31.1785C16.491 30.8659 16.6666 30.442 16.6666 30C16.6666 29.558 16.491 29.134 16.1785 28.8215C15.8659 28.5089 15.442 28.3333 15 28.3333ZM10.2833 28.3333C10.6276 27.3574 11.2662 26.5124 12.111 25.9146C12.9557 25.3169 13.9651 24.9959 15 24.9959C16.0348 24.9959 17.0442 25.3169 17.889 25.9146C18.7337 26.5124 19.3723 27.3574 19.7166 28.3333H31.6666C32.1087 28.3333 32.5326 28.5089 32.8451 28.8215C33.1577 29.134 33.3333 29.558 33.3333 30C33.3333 30.442 33.1577 30.8659 32.8451 31.1785C32.5326 31.4911 32.1087 31.6667 31.6666 31.6667H19.7166C19.3723 32.6426 18.7337 33.4876 17.889 34.0853C17.0442 34.6831 16.0348 35.0041 15 35.0041C13.9651 35.0041 12.9557 34.6831 12.111 34.0853C11.2662 33.4876 10.6276 32.6426 10.2833 31.6667H8.33329C7.89127 31.6667 7.46734 31.4911 7.15478 31.1785C6.84222 30.8659 6.66663 30.442 6.66663 30C6.66663 29.558 6.84222 29.134 7.15478 28.8215C7.46734 28.5089 7.89127 28.3333 8.33329 28.3333H10.2833Z" fill="#E20612"/>
</svg>
