<svg width="40" height="40" viewBox="0 0 40 40" fill="none" xmlns="http://www.w3.org/2000/svg">
<path d="M15 8.33333C14.558 8.33333 14.1341 8.50892 13.8215 8.82148C13.5089 9.13404 13.3334 9.55797 13.3334 10C13.3334 10.442 13.5089 10.8659 13.8215 11.1785C14.1341 11.4911 14.558 11.6667 15 11.6667C15.442 11.6667 15.866 11.4911 16.1785 11.1785C16.4911 10.8659 16.6667 10.442 16.6667 10C16.6667 9.55797 16.4911 9.13404 16.1785 8.82148C15.866 8.50892 15.442 8.33333 15 8.33333ZM10.2834 8.33333C10.6277 7.35744 11.2663 6.51238 12.111 5.91464C12.9558 5.3169 13.9652 4.99591 15 4.99591C16.0349 4.99591 17.0443 5.3169 17.889 5.91464C18.7338 6.51238 19.3723 7.35744 19.7167 8.33333H31.6667C32.1087 8.33333 32.5326 8.50892 32.8452 8.82148C33.1578 9.13404 33.3334 9.55797 33.3334 10C33.3334 10.442 33.1578 10.8659 32.8452 11.1785C32.5326 11.4911 32.1087 11.6667 31.6667 11.6667H19.7167C19.3723 12.6425 18.7338 13.4876 17.889 14.0853C17.0443 14.6831 16.0349 15.0041 15 15.0041C13.9652 15.0041 12.9558 14.6831 12.111 14.0853C11.2663 13.4876 10.6277 12.6425 10.2834 11.6667H8.33335C7.89133 11.6667 7.4674 11.4911 7.15484 11.1785C6.84228 10.8659 6.66669 10.442 6.66669 10C6.66669 9.55797 6.84228 9.13404 7.15484 8.82148C7.4674 8.50892 7.89133 8.33333 8.33335 8.33333H10.2834ZM25 18.3333C24.558 18.3333 24.1341 18.5089 23.8215 18.8215C23.5089 19.134 23.3334 19.558 23.3334 20C23.3334 20.442 23.5089 20.8659 23.8215 21.1785C24.1341 21.4911 24.558 21.6667 25 21.6667C25.442 21.6667 25.866 21.4911 26.1785 21.1785C26.4911 20.8659 26.6667 20.442 26.6667 20C26.6667 19.558 26.4911 19.134 26.1785 18.8215C25.866 18.5089 25.442 18.3333 25 18.3333ZM20.2834 18.3333C20.6277 17.3574 21.2663 16.5124 22.111 15.9146C22.9558 15.3169 23.9652 14.9959 25 14.9959C26.0349 14.9959 27.0443 15.3169 27.889 15.9146C28.7338 16.5124 29.3723 17.3574 29.7167 18.3333H31.6667C32.1087 18.3333 32.5326 18.5089 32.8452 18.8215C33.1578 19.134 33.3334 19.558 33.3334 20C33.3334 20.442 33.1578 20.8659 32.8452 21.1785C32.5326 21.4911 32.1087 21.6667 31.6667 21.6667H29.7167C29.3723 22.6426 28.7338 23.4876 27.889 24.0853C27.0443 24.6831 26.0349 25.0041 25 25.0041C23.9652 25.0041 22.9558 24.6831 22.111 24.0853C21.2663 23.4876 20.6277 22.6426 20.2834 21.6667H8.33335C7.89133 21.6667 7.4674 21.4911 7.15484 21.1785C6.84228 20.8659 6.66669 20.442 6.66669 20C6.66669 19.558 6.84228 19.134 7.15484 18.8215C7.4674 18.5089 7.89133 18.3333 8.33335 18.3333H20.2834ZM15 28.3333C14.558 28.3333 14.1341 28.5089 13.8215 28.8215C13.5089 29.134 13.3334 29.558 13.3334 30C13.3334 30.442 13.5089 30.8659 13.8215 31.1785C14.1341 31.4911 14.558 31.6667 15 31.6667C15.442 31.6667 15.866 31.4911 16.1785 31.1785C16.4911 30.8659 16.6667 30.442 16.6667 30C16.6667 29.558 16.4911 29.134 16.1785 28.8215C15.866 28.5089 15.442 28.3333 15 28.3333ZM10.2834 28.3333C10.6277 27.3574 11.2663 26.5124 12.111 25.9146C12.9558 25.3169 13.9652 24.9959 15 24.9959C16.0349 24.9959 17.0443 25.3169 17.889 25.9146C18.7338 26.5124 19.3723 27.3574 19.7167 28.3333H31.6667C32.1087 28.3333 32.5326 28.5089 32.8452 28.8215C33.1578 29.134 33.3334 29.558 33.3334 30C33.3334 30.442 33.1578 30.8659 32.8452 31.1785C32.5326 31.4911 32.1087 31.6667 31.6667 31.6667H19.7167C19.3723 32.6426 18.7338 33.4876 17.889 34.0853C17.0443 34.6831 16.0349 35.0041 15 35.0041C13.9652 35.0041 12.9558 34.6831 12.111 34.0853C11.2663 33.4876 10.6277 32.6426 10.2834 31.6667H8.33335C7.89133 31.6667 7.4674 31.4911 7.15484 31.1785C6.84228 30.8659 6.66669 30.442 6.66669 30C6.66669 29.558 6.84228 29.134 7.15484 28.8215C7.4674 28.5089 7.89133 28.3333 8.33335 28.3333H10.2834Z" fill="#E20612"/>
</svg>
